<?xml version="1.0" ?><!DOCTYPE svg  PUBLIC '-//W3C//DTD SVG 1.1//EN'  'http://www.w3.org/Graphics/SVG/1.1/DTD/svg11.dtd'><svg enable-background="new 0 0 512 512" id="Layer_1" version="1.1" viewBox="0 0 512 512" xml:space="preserve" xmlns="http://www.w3.org/2000/svg" xmlns:xlink="http://www.w3.org/1999/xlink"><g><path d="M256.7,507.9C120,507.5,7.8,396.4,8.5,255.6C9.1,116.5,121.2,4.7,260,6.2   c135.2,1.5,246.6,112.2,245.5,252.9C504.5,397.5,393.5,507.7,256.7,507.9z M257.1,25.9c-124.2-0.4-227.7,100.8-229,228.6   c-1.3,130.7,103,232.5,226.4,233.8c126.1,1.3,230.7-100.7,231.4-229.1C486.5,129.5,384.3,25.9,257.1,25.9z" fill="#964DD4"/><path d="M413.1,259.9c0,22-0.6,44,0.1,66c1.4,39-24.7,71.2-58.6,83.8c-11.3,4.2-23,6.5-35.1,6.5   c-41.8-0.1-83.6,0.4-125.5-0.2c-35.1-0.5-62.9-15.2-81.8-45.3c-7.4-11.8-11.2-24.9-11.3-38.8c-0.2-47.8-0.6-95.6,0.1-143.5   c0.4-30.8,16.1-53.5,41.6-69.8c16.3-10.4,34.4-14.8,53.6-14.8c41.2,0,82.3-0.3,123.5,0.1c32.4,0.4,59.1,13.2,78.4,39.7   c9.8,13.5,15,28.8,15,45.7C413.1,212.9,413.1,236.4,413.1,259.9z M124,259.8c0,23.2,0,46.3,0,69.5c0,9,1.9,17.5,6.1,25.5   c13.8,26,36.5,37.7,64.9,38.1c40.6,0.6,81.3,0.1,121.9,0.2c10.9,0,21.5-1.9,31.7-5.9c25.4-10,41.4-33.1,41.4-60.3   c0-45.1,0-90.3,0-135.4c0-12.9-3.6-24.6-11.4-35c-14.9-19.8-35.3-29-59.6-29.2c-41.3-0.4-82.6-0.2-123.9-0.1   c-9.2,0-18.1,1.8-26.8,4.9c-25.4,9.2-45.4,32.7-44.4,63.3C124.6,216.8,124,238.3,124,259.8z" fill="#964DD4"/><path d="M257.3,182c40.7,0,73.7,32.5,73.6,72.6c-0.1,39.7-33.2,72.3-73.5,72.3c-40.7,0-73.4-32.4-73.4-72.7   C184,214.2,216.7,182,257.3,182z M307.3,254.3c-0.1-27.1-22.5-49.1-50.1-49.1c-27.3,0-50.1,22.4-50.1,49.3   c0,27,22.5,48.9,50.3,48.9C285.3,303.3,307.4,281.6,307.3,254.3z" fill="#964DD4"/><path d="M323.9,176.1c-0.1-9.1,6.7-16.2,15.3-16.2c8.5,0,15.7,7.4,15.6,16.1c0,8.8-7.3,16.1-15.8,16   C330.6,191.9,323.9,184.9,323.9,176.1z" fill="#964DD4"/></g></svg>